<?xml version="1.0" encoding="UTF-8" standalone="no"?>
<svg version="1.1" width="71.75mm" height="24.375mm"
     viewBox="0 0 1148 390"
     xmlns="http://www.w3.org/2000/svg"
     xmlns:cc="http://creativecommons.org/ns#"
     xmlns:dc="http://purl.org/dc/elements/1.1/"
     xmlns:rdf="http://www.w3.org/1999/02/22-rdf-syntax-ns#"
     xmlns:svg="http://www.w3.org/2000/svg">
  <title>netapi as LEGO bricks</title>
  <metadata>
    <rdf:RDF>
      <cc:Work rdf:about="A comprehensive way to understand netapi">
        <dc:format>image/svg+xml</dc:format>
        <dc:type rdf:resource="http://purl.org/dc/dcmitype/StillImage" />
        <dc:title>netapi as LEGO bricks</dc:title>
        <cc:license rdf:resource="http://creativecommons.org/licenses/by-sa/3.0/" />
        <dc:creator>
          <cc:Agent>
            <dc:title>Martine Lenders</dc:title>
          </cc:Agent>
        </dc:creator>
      </cc:Work>
      <cc:License rdf:about="http://creativecommons.org/licenses/by-sa/3.0/">
        <cc:permits rdf:resource="http://creativecommons.org/ns#Reproduction" />
        <cc:permits rdf:resource="http://creativecommons.org/ns#Distribution" />
        <cc:permits rdf:resource="http://creativecommons.org/ns#DerivativeWorks" />
        <cc:requires rdf:resource="http://creativecommons.org/ns#Notice" />
        <cc:requires rdf:resource="http://creativecommons.org/ns#Attribution" />
        <cc:requires rdf:resource="http://creativecommons.org/ns#ShareAlike" />
      </cc:License>
    </rdf:RDF>
  </metadata>
  <defs>
    <style type="text/css">
      path,ellipse {
        stroke: #333333;
        stroke-width: 0.3px;
      }
      text {
        fill: #000000;
        font-family: 'CMU Sans Serif';
        font-size: 65px;
        stroke: none;
      }
      .cylinder-side {
        fill: url(#cylinder-side-gradient);
      }
      .top {
        fill: #000000;
        fill-opacity: 0.05;
      }
      .right {
        fill: #000000;
        fill-opacity: 0.25;
      }
      .left {
        fill: #ffffff;
        fill-opacity: 0.25;
      }
      .pointer {
        fill: none;
        marker-end: url(#arrow-end);
        stroke: #000000;
        stroke-width: 3;
        stroke-linecap: round;
      }

      .sock {
        fill: #ff99ff;
      }
      .tcp,.udp {
        fill: #9999ff;
      }
      .ipv6 {
        fill: #99ffbb;
      }
      .lowpan {
        fill: #ffff99;
      }
      .mac {
        fill: #ffd699;
      }

      .face {
        fill: none;
        stroke: #000000;
        stroke-width: 4;
        stroke-linecap: round;
      }
      .eye {
        fill: #ffffff;
      }
      .pupil {
        fill: #000000;
        stroke: none;
      }
    </style>
    <linearGradient id="cylinder-side-gradient" x1="0%" y1="0%" x2="100%" y2="0%">
      <stop style="stop-color: #ffffff; stop-opacity: .5;" offset="0" />
      <stop style="stop-color: #ffffff; stop-opacity: 0;" offset="0.5" />
      <stop style="stop-color: #000000; stop-opacity: 0;" offset="0.5" />
      <stop style="stop-color: #000000; stop-opacity: .5;" offset="1" />
    </linearGradient>
    <marker style="overflow: visible" id="arrow-end" orient="auto">
      <path class="outer-arrow-head" d="m 2,0 -5,-2 1,2 -1,2 z" />
    </marker>
  </defs>
  <g transform="translate(5,5)">
    <g transform="translate(635,237.5)">
      <path class="mac" d="m 0,27.5 l 0,30 55,-27.5 0,-30 z" />
      <path class="mac" d="m 0,27.5 l 0,30 -110,-55 0,-30 z" />
      <path class="right" d="m 0,27.5 l 0,30 55,-27.5 0,-30 z" />
      <path class="left" d="m 0,27.5 l 0,30 -110,-55 0,-30 z" />
    </g>
    <g transform="translate(635,177.5)">
      <path class="lowpan" d="m 0,27.5 l 0,30 55,-27.5 0,-30 z" />
      <path class="lowpan" d="m 0,27.5 l 0,30 -110,-55 0,-30 z" />
      <path class="lowpan" d="m 0,57.5 l 0,30 55,-27.5 0,-30 z" />
      <path class="lowpan" d="m 0,57.5 l 0,30 -110,-55 0,-30 z" />
      <path class="right" d="m 0,27.5 l 0,30 55,-27.5 0,-30 z" />
      <path class="left" d="m 0,27.5 l 0,30 -110,-55 0,-30 z" />
      <path class="right" d="m 0,57.5 l 0,30 55,-27.5 0,-30 z" />
      <path class="left" d="m 0,57.5 l 0,30 -110,-55 0,-30 z" />
    </g>
    <g transform="translate(470,260)">
      <path class="mac" d="m 0,27.5 l 0,90 55,-27.5 0,-90 z" />
      <path class="mac" d="m 0,27.5 l 0,90 -110,-55 0,-90 z" />
      <path class="right" d="m 0,27.5 l 0,90 55,-27.5 0,-90 z" />
      <path class="left" d="m 0,27.5 l 0,90 -110,-55 0,-90 z" />
    </g>
    <g transform="translate(360,225)">
      <path class="ipv6" d="m 0,27.5 l 110,-55 -110,-55 -110,55 z" />
      <path class="ipv6" d="m 0,27.5 l 0,90 330,-165 0,-90 z" />
      <path class="top" d="m 0,27.5 l 110,-55 -110,-55 -110,55 z" />
      <g class="face" transform="skewY(-27.5) scale(0.705,1)">
        <path class="face" d="M 0,100 a 90,90 0 0,0 50,-16" />
        <circle class="eye" cx="78" cy="57.5" r="20" />
        <circle class="pupil" cx="84" cy="51.5" r="10" />
      </g>
      <path class="right" d="m 0,27.5 l 0,90 330,-165 0,-90 z" />
      <path class="ipv6" d="m 0,27.5 l 0,90 -110,-55 0,-90 z" />
      <path class="left" d="m 0,27.5 l 0,90 -110,-55 0,-90 z" />
    </g>
    <g transform="translate(580,85)">
      <path class="tcp" d="m 0,27.5 l 110,-55 -110,-55 -110,55 z" />
      <path class="tcp" d="m 0,27.5 l 0,30 110,-55 0,-30 z" />
      <path class="tcp" d="m 0,27.5 l 0,30 -110,-55 0,-30 z" />
      <path class="top" d="m 0,27.5 l 110,-55 -110,-55 -110,55 z" />
      <path class="right" d="m 0,27.5 l 0,30 110,-55 0,-30 z" />
      <path class="left" d="m 0,27.5 l 0,30 -110,-55 0,-30 z" />
      <g class="cylinder" transform="translate(0,0)">
        <ellipse class="tcp cylinder-top" cx="0" cy="-17" rx="24" ry="12" />
        <path class="tcp" d="m -24,0 l 0,-17 a 24,12 0 0,0 24,12 a 24,12 0 0,0 24,-12 l 0,17 a 24,12 0 0,1 -24,12 a 24,12 0 0,1 -24,-12" />
        <path class="cylinder-side" d="m -24,0 l 0,-17 a 24,12 0 0,0 24,12 a 24,12 0 0,0 24,-12 l 0,17 a 24,12 0 0,1 -24,12 a 24,12 0 0,1 -24,-12" />
      </g>
      <g class="cylinder" transform="translate(-55,-27.5)">
        <ellipse class="tcp cylinder-top" cx="0" cy="-17" rx="24" ry="12" />
        <path class="tcp" d="m -24,0 l 0,-17 a 24,12 0 0,0 24,12 a 24,12 0 0,0 24,-12 l 0,17 a 24,12 0 0,1 -24,12 a 24,12 0 0,1 -24,-12" />
        <path class="cylinder-side" d="m -24,0 l 0,-17 a 24,12 0 0,0 24,12 a 24,12 0 0,0 24,-12 l 0,17 a 24,12 0 0,1 -24,12 a 24,12 0 0,1 -24,-12" />
      </g>
      <g class="cylinder" transform="translate(55,-27.5)">
        <ellipse class="tcp cylinder-top" cx="0" cy="-17" rx="24" ry="12" />
        <path class="tcp" d="m -24,0 l 0,-17 a 24,12 0 0,0 24,12 a 24,12 0 0,0 24,-12 l 0,17 a 24,12 0 0,1 -24,12 a 24,12 0 0,1 -24,-12" />
        <path class="cylinder-side" d="m -24,0 l 0,-17 a 24,12 0 0,0 24,12 a 24,12 0 0,0 24,-12 l 0,17 a 24,12 0 0,1 -24,12 a 24,12 0 0,1 -24,-12" />
      </g>
      <g class="cylinder" transform="translate(0,-55)">
        <ellipse class="tcp cylinder-top" cx="0" cy="-17" rx="24" ry="12" />
        <path class="tcp" d="m -24,0 l 0,-17 a 24,12 0 0,0 24,12 a 24,12 0 0,0 24,-12 l 0,17 a 24,12 0 0,1 -24,12 a 24,12 0 0,1 -24,-12" />
        <path class="cylinder-side" d="m -24,0 l 0,-17 a 24,12 0 0,0 24,12 a 24,12 0 0,0 24,-12 l 0,17 a 24,12 0 0,1 -24,12 a 24,12 0 0,1 -24,-12" />
      </g>
    </g>
    <g transform="translate(415,167.5)">
      <path class="udp" d="m 0,27.5 l 165,-82.5 -110,-55 -165,82.5 z" />
      <path class="udp" d="m 0,27.5 l 0,30 165,-82.5 0,-30 z" />
      <path class="udp" d="m 0,27.5 l 0,30 -110,-55 0,-30 z" />
      <path class="top" d="m 0,27.5 l 165,-82.5 -110,-55 -165,82.5 z" />
      <path class="right" d="m 0,27.5 l 0,30 165,-82.5 0,-30 z" />
      <path class="left" d="m 0,27.5 l 0,30 -110,-55 0,-30 z" />
      <g class="cylinder" transform="translate(0,0)">
        <ellipse class="udp cylinder-top" cx="0" cy="-17" rx="24" ry="12" />
        <path class="udp" d="m -24,0 l 0,-17 a 24,12 0 0,0 24,12 a 24,12 0 0,0 24,-12 l 0,17 a 24,12 0 0,1 -24,12 a 24,12 0 0,1 -24,-12" />
        <path class="cylinder-side" d="m -24,0 l 0,-17 a 24,12 0 0,0 24,12 a 24,12 0 0,0 24,-12 l 0,17 a 24,12 0 0,1 -24,12 a 24,12 0 0,1 -24,-12" />
      </g>
      <g class="cylinder" transform="translate(-55,-27.5)">
        <ellipse class="udp cylinder-top" cx="0" cy="-17" rx="24" ry="12" />
        <path class="udp" d="m -24,0 l 0,-17 a 24,12 0 0,0 24,12 a 24,12 0 0,0 24,-12 l 0,17 a 24,12 0 0,1 -24,12 a 24,12 0 0,1 -24,-12" />
        <path class="cylinder-side" d="m -24,0 l 0,-17 a 24,12 0 0,0 24,12 a 24,12 0 0,0 24,-12 l 0,17 a 24,12 0 0,1 -24,12 a 24,12 0 0,1 -24,-12" />
      </g>
      <g class="cylinder" transform="translate(55,-27.5)">
        <ellipse class="udp cylinder-top" cx="0" cy="-17" rx="24" ry="12" />
        <path class="udp" d="m -24,0 l 0,-17 a 24,12 0 0,0 24,12 a 24,12 0 0,0 24,-12 l 0,17 a 24,12 0 0,1 -24,12 a 24,12 0 0,1 -24,-12" />
        <path class="cylinder-side" d="m -24,0 l 0,-17 a 24,12 0 0,0 24,12 a 24,12 0 0,0 24,-12 l 0,17 a 24,12 0 0,1 -24,12 a 24,12 0 0,1 -24,-12" />
      </g>
      <g class="cylinder" transform="translate(0,-55)">
        <ellipse class="udp cylinder-top" cx="0" cy="-17" rx="24" ry="12" />
        <path class="udp" d="m -24,0 l 0,-17 a 24,12 0 0,0 24,12 a 24,12 0 0,0 24,-12 l 0,17 a 24,12 0 0,1 -24,12 a 24,12 0 0,1 -24,-12" />
        <path class="cylinder-side" d="m -24,0 l 0,-17 a 24,12 0 0,0 24,12 a 24,12 0 0,0 24,-12 l 0,17 a 24,12 0 0,1 -24,12 a 24,12 0 0,1 -24,-12" />
      </g>
      <g class="cylinder" transform="translate(110,-55)">
        <ellipse class="udp cylinder-top" cx="0" cy="-17" rx="24" ry="12" />
        <path class="udp" d="m -24,0 l 0,-17 a 24,12 0 0,0 24,12 a 24,12 0 0,0 24,-12 l 0,17 a 24,12 0 0,1 -24,12 a 24,12 0 0,1 -24,-12" />
        <path class="cylinder-side" d="m -24,0 l 0,-17 a 24,12 0 0,0 24,12 a 24,12 0 0,0 24,-12 l 0,17 a 24,12 0 0,1 -24,12 a 24,12 0 0,1 -24,-12" />
      </g>
      <g class="cylinder" transform="translate(55,-82.5)">
        <ellipse class="udp cylinder-top" cx="0" cy="-17" rx="24" ry="12" />
        <path class="udp" d="m -24,0 l 0,-17 a 24,12 0 0,0 24,12 a 24,12 0 0,0 24,-12 l 0,17 a 24,12 0 0,1 -24,12 a 24,12 0 0,1 -24,-12" />
        <path class="cylinder-side" d="m -24,0 l 0,-17 a 24,12 0 0,0 24,12 a 24,12 0 0,0 24,-12 l 0,17 a 24,12 0 0,1 -24,12 a 24,12 0 0,1 -24,-12" />
      </g>
    </g>
    <g transform="translate(360,225)">
      <g class="cylinder" transform="translate(0,0)">
        <ellipse class="ipv6 cylinder-top" cx="0" cy="-17" rx="24" ry="12" />
        <path class="ipv6" d="m -24,0 l 0,-17 a 24,12 0 0,0 24,12 a 24,12 0 0,0 24,-12 l 0,17 a 24,12 0 0,1 -24,12 a 24,12 0 0,1 -24,-12" />
        <path class="cylinder-side" d="m -24,0 l 0,-17 a 24,12 0 0,0 24,12 a 24,12 0 0,0 24,-12 l 0,17 a 24,12 0 0,1 -24,12 a 24,12 0 0,1 -24,-12" />
      </g>
      <g class="cylinder" transform="translate(-55,-27.5)">
        <ellipse class="ipv6 cylinder-top" cx="0" cy="-17" rx="24" ry="12" />
        <path class="ipv6" d="m -24,0 l 0,-17 a 24,12 0 0,0 24,12 a 24,12 0 0,0 24,-12 l 0,17 a 24,12 0 0,1 -24,12 a 24,12 0 0,1 -24,-12" />
        <path class="cylinder-side" d="m -24,0 l 0,-17 a 24,12 0 0,0 24,12 a 24,12 0 0,0 24,-12 l 0,17 a 24,12 0 0,1 -24,12 a 24,12 0 0,1 -24,-12" />
      </g>
    </g>
    <text x="170" y="150" style="text-anchor: end; text-align: right;">netapi</text>
    <path class="pointer" d="M 175,137.5 301,176.5" />
    <text x="750" y="55">UDP</text>
    <path class="pointer" d="M 745,36.5 690,72.5" />
    <text x="750" y="130">IPv6</text>
    <path class="pointer" d="M 745,111.5 690,132.5" />
    <text x="750" y="205">6LoWPAN</text>
    <path class="pointer" d="M 745,186.5 690,207.5" />
    <text x="750" y="280">MAC + driver</text>
    <path class="pointer" d="M 745,261.5 690,254.5" />
  </g>
</svg>
